<?xml version="1.0" standalone="no"?><!DOCTYPE svg PUBLIC "-//W3C//DTD SVG 1.1//EN" "http://www.w3.org/Graphics/SVG/1.1/DTD/svg11.dtd"><svg t="1561013366203" class="icon" style="" viewBox="0 0 1024 1024" version="1.1" xmlns="http://www.w3.org/2000/svg" p-id="1101" xmlns:xlink="http://www.w3.org/1999/xlink" width="40" height="40"><defs><style type="text/css"></style></defs><path d="M471.04 508.928c-9.216 0-17.408-5.12-22.528-13.312l-64.512-112.64c-7.168-12.288-3.072-27.648 9.216-34.816 12.288-7.168 27.648-3.072 34.816 9.216l64.512 112.64c7.168 12.288 3.072 27.648-9.216 34.816-4.096 3.072-8.192 4.096-12.288 4.096zM567.296 508.928c-4.096 0-8.192-1.024-12.288-3.072-12.288-7.168-16.384-22.528-9.216-34.816l64.512-112.64c7.168-12.288 22.528-16.384 34.816-9.216 12.288 7.168 16.384 22.528 9.216 34.816l-64.512 112.64c-5.12 8.192-13.312 12.288-22.528 12.288z" p-id="1102" fill="#999999"></path><path d="M661.504 525.312H371.712c-14.336 0-25.6-11.264-25.6-25.6s11.264-25.6 25.6-25.6h289.792c14.336 0 25.6 11.264 25.6 25.6s-11.264 25.6-25.6 25.6zM701.44 686.08H331.776c-14.336 0-25.6-11.264-25.6-25.6S317.44 634.88 331.776 634.88h370.688c14.336 0 25.6 11.264 25.6 25.6S715.776 686.08 701.44 686.08z" p-id="1103" fill="#999999"></path><path d="M517.12 831.488c-14.336 0-25.6-11.264-25.6-25.6V516.096c0-14.336 11.264-25.6 25.6-25.6S542.72 501.76 542.72 516.096v289.792c0 14.336-12.288 25.6-25.6 25.6z" p-id="1104" fill="#999999"></path><path d="M936.96 1002.496H93.184c-35.84 0-64.512-28.672-64.512-64.512V94.208c0-35.84 28.672-64.512 64.512-64.512h567.296C674.816 29.696 686.08 40.96 686.08 55.296s-11.264 25.6-25.6 25.6H93.184c-7.168 0-13.312 6.144-13.312 13.312v843.776c0 7.168 6.144 13.312 13.312 13.312h843.776c7.168 0 13.312-6.144 13.312-13.312V390.144c0-14.336 11.264-25.6 25.6-25.6s25.6 11.264 25.6 25.6v546.816c0 35.84-28.672 65.536-64.512 65.536z" p-id="1105" fill="#999999"></path><path d="M973.824 220.16H696.32c-14.336 0-25.6-11.264-25.6-25.6s11.264-25.6 25.6-25.6h277.504c14.336 0 25.6 11.264 25.6 25.6s-11.264 25.6-25.6 25.6z" p-id="1106" fill="#999999"></path><path d="M834.56 359.424c-14.336 0-25.6-11.264-25.6-25.6V56.32C808.96 41.984 820.224 30.72 834.56 30.72S860.16 41.984 860.16 56.32v277.504c0 14.336-11.264 25.6-25.6 25.6z" p-id="1107" fill="#999999"></path></svg>