<?xml version="1.0" standalone="no"?><!DOCTYPE svg PUBLIC "-//W3C//DTD SVG 1.1//EN" "http://www.w3.org/Graphics/SVG/1.1/DTD/svg11.dtd"><svg t="1561013566193" class="icon" style="" viewBox="0 0 1024 1024" version="1.1" xmlns="http://www.w3.org/2000/svg" p-id="1959" xmlns:xlink="http://www.w3.org/1999/xlink" width="40" height="40"><defs><style type="text/css"></style></defs><path d="M930.816 998.4H93.184c-26.624 0-48.128-21.504-48.128-48.128V112.64c0-26.624 21.504-48.128 48.128-48.128H245.76c14.336 0 25.6 11.264 25.6 25.6s-11.264 25.6-25.6 25.6H96.256v831.488h831.488V115.712H786.432c-14.336 0-25.6-11.264-25.6-25.6s11.264-25.6 25.6-25.6h144.384c26.624 0 48.128 21.504 48.128 48.128v837.632c0 26.624-21.504 48.128-48.128 48.128z m0-882.688z" p-id="1960" fill="#999999"></path><path d="M467.968 606.208c-9.216 0-17.408-5.12-22.528-13.312l-61.44-107.52c-7.168-12.288-3.072-27.648 9.216-34.816 12.288-7.168 27.648-3.072 34.816 9.216l61.44 107.52c7.168 12.288 3.072 27.648-9.216 34.816-4.096 3.072-8.192 4.096-12.288 4.096zM561.152 606.208c-4.096 0-8.192-1.024-12.288-3.072-12.288-7.168-16.384-22.528-9.216-34.816l61.44-107.52c7.168-12.288 22.528-16.384 34.816-9.216s16.384 22.528 9.216 34.816L583.68 593.92c-5.12 7.168-13.312 12.288-22.528 12.288z" p-id="1961" fill="#999999"></path><path d="M651.264 621.568H372.736c-14.336 0-25.6-11.264-25.6-25.6s11.264-25.6 25.6-25.6h278.528c14.336 0 25.6 11.264 25.6 25.6s-11.264 25.6-25.6 25.6zM689.152 776.192H334.848c-14.336 0-25.6-11.264-25.6-25.6s11.264-25.6 25.6-25.6h354.304c14.336 0 25.6 11.264 25.6 25.6s-11.264 25.6-25.6 25.6z" p-id="1962" fill="#999999"></path><path d="M512 915.456c-14.336 0-25.6-11.264-25.6-25.6V611.328c0-14.336 11.264-25.6 25.6-25.6s25.6 11.264 25.6 25.6v278.528c0 14.336-11.264 25.6-25.6 25.6z" p-id="1963" fill="#999999"></path><path d="M512 407.552c-14.336 0-25.6-11.264-25.6-25.6V51.2c0-14.336 11.264-25.6 25.6-25.6s25.6 11.264 25.6 25.6v330.752c0 14.336-11.264 25.6-25.6 25.6z" p-id="1964" fill="#999999"></path><path d="M667.648 232.448c-6.144 0-13.312-2.048-18.432-7.168L493.568 69.632c-10.24-10.24-10.24-26.624 0-35.84 10.24-10.24 26.624-10.24 35.84 0L686.08 188.416c10.24 10.24 10.24 26.624 0 35.84-5.12 6.144-12.288 8.192-18.432 8.192z" p-id="1965" fill="#999999"></path><path d="M356.352 232.448c-6.144 0-13.312-2.048-18.432-7.168-10.24-10.24-10.24-26.624 0-35.84L493.568 32.768c10.24-10.24 26.624-10.24 35.84 0 10.24 10.24 10.24 26.624 0 35.84L374.784 225.28c-5.12 5.12-12.288 7.168-18.432 7.168z" p-id="1966" fill="#999999"></path></svg>