<?xml version="1.0" encoding="utf-8"?>
<!-- Generator: Adobe Illustrator 22.0.0, SVG Export Plug-In . SVG Version: 6.00 Build 0)  -->
<svg version="1.1" id="图层_1" xmlns="http://www.w3.org/2000/svg" xmlns:xlink="http://www.w3.org/1999/xlink" x="0px" y="0px"
	 viewBox="0 0 50 100" style="enable-background:new 0 0 50 100;" xml:space="preserve">
<g>
	<path d="M32.5,98.6c-1.9,0-3.5-1.6-3.5-3.5v-90c0-1.9,1.6-3.5,3.5-3.5c1.9,0,3.5,1.6,3.5,3.5v90C36,97,34.4,98.6,32.5,98.6z"/>
	<path d="M32.5,98.6c-0.9,0-1.8-0.3-2.5-1L6.7,74.2c-1.4-1.4-1.4-3.6,0-4.9c1.4-1.4,3.6-1.4,5,0L35,92.6c1.4,1.4,1.4,3.6,0,4.9
		C34.2,98.2,33.4,98.6,32.5,98.6z"/>
</g>
</svg>
