<?xml version="1.0" encoding="UTF-8"?>
<svg width="30px" height="30px" viewBox="0 0 30 30" version="1.1" xmlns="http://www.w3.org/2000/svg" xmlns:xlink="http://www.w3.org/1999/xlink">
    <!-- Generator: Sketch 51.3 (57544) - http://www.bohemiancoding.com/sketch -->
    <title>Fill 1</title>
    <desc>Created with Sketch.</desc>
    <defs></defs>
    <g id="Symbols" stroke="none" stroke-width="1" fill="none" fill-rule="evenodd">
        <g id="列表商品" transform="translate(-630.000000, -146.000000)" fill="#FF6D44">
            <path d="M651.00073,173.00007 C651.00073,171.786592 651.731601,170.692791 652.852756,170.228472 C653.973728,169.764116 655.264078,170.020757 656.122139,170.878754 C656.980199,171.73664 657.236849,173.027133 656.772478,174.148069 C656.308107,175.269152 655.214162,176 654.000755,176 C652.343889,176 651.00073,174.656883 651.00073,173.00007 M634.500112,173.00007 C634.500112,171.34311 635.843418,169.999993 637.500284,169.999993 C639.15715,169.999993 640.50031,171.34311 640.50031,173.00007 C640.50031,174.656883 639.15715,176 637.500284,176 C635.843418,176 634.500112,174.656883 634.500112,173.00007 M655.500842,167.000062 L636.000198,167.000062 C635.60237,167.000062 635.220839,166.842005 634.939433,166.560609 C634.658174,166.279395 634.500112,165.897876 634.500112,165.500024 L634.500112,149.000077 L630,149.000077 L630,146 L636.000198,146 C636.828631,146 637.500284,146.671632 637.500284,147.500038 L637.500284,164.000022 L654.329367,164.000022 L656.579368,155.000084 L640.50031,155.000084 L640.50031,152.000007 L658.500867,152.000007 C658.962675,152.0003 659.398553,152.213289 659.682669,152.57723 C659.966638,152.94128 660.067203,153.415781 659.955176,153.863804 L656.95515,165.863818 C656.788372,166.531165 656.188792,166.999659 655.500842,167.000062" id="Fill-1"></path>
        </g>
    </g>
</svg>