<?xml version="1.0" encoding="UTF-8"?>
<svg width="20px" height="20px" viewBox="0 0 20 20" version="1.1" xmlns="http://www.w3.org/2000/svg" xmlns:xlink="http://www.w3.org/1999/xlink">
    <!-- Generator: Sketch 52.5 (67469) - http://www.bohemiancoding.com/sketch -->
    <title>分组 22</title>
    <desc>Created with Sketch.</desc>
    <g id="订单" stroke="none" stroke-width="1" fill="none" fill-rule="evenodd">
        <g id="4查看物流" transform="translate(-631.000000, -544.000000)">
            <g id="分组-30" transform="translate(540.000000, 240.000000)">
                <g id="分组-22" transform="translate(92.000000, 305.000000)">
                    <circle id="椭圆形" stroke="#FFAA00" fill="#FFFFFF" cx="9" cy="9" r="9"></circle>
                    <path d="M7.74951162,11.9613249 L11.566654,5.40952744 C11.7945839,5.01830531 12.2953761,4.88412322 12.6883762,5.10897357 C13.0774102,5.33155473 13.2123469,5.82736678 12.9897658,6.21640078 C12.9887107,6.21824486 12.9876484,6.22008479 12.9865789,6.22192053 L8.89133445,13.2510563 C8.69189918,13.5933698 8.28356085,13.7388938 7.92131507,13.6193048 C7.70708507,13.6909797 7.46443372,13.6743625 7.25309551,13.5534478 L4.40682197,11.9249864 C4.01954798,11.7034122 3.88522175,11.2098432 4.10679595,10.8225692 C4.10784625,10.8207335 4.10890375,10.8189019 4.10996843,10.8170744 C4.33686717,10.4276222 4.83539378,10.2940471 5.22661598,10.5178803 L7.74951162,11.9613249 Z" id="合并形状-copy-2" fill="#FFAA00" transform="translate(8.548524, 9.330964) rotate(-345.000000) translate(-8.548524, -9.330964) "></path>
                </g>
            </g>
        </g>
    </g>
</svg>