<?xml version="1.0" encoding="utf-8"?>
<!-- Generator: Adobe Illustrator 22.0.0, SVG Export Plug-In . SVG Version: 6.00 Build 0)  -->
<svg version="1.1" id="图层_1" xmlns="http://www.w3.org/2000/svg" xmlns:xlink="http://www.w3.org/1999/xlink" x="0px" y="0px"
	 viewBox="0 0 50 100" style="enable-background:new 0 0 50 100;" xml:space="preserve">
<g>
	<path d="M14.5,98.6c-1.9,0-3.5-1.6-3.5-3.5v-90c0-1.9,1.6-3.5,3.5-3.5S18,3.2,18,5.1v90C18,97,16.5,98.6,14.5,98.6z"/>
	<path d="M37.9,31.9c-0.9,0-1.8-0.3-2.5-1L12.1,7.6c-1.4-1.4-1.4-3.6,0-4.9c1.4-1.4,3.6-1.4,4.9,0L40.3,26c1.4,1.4,1.4,3.6,0,4.9
		C39.7,31.6,38.8,31.9,37.9,31.9z"/>
</g>
</svg>
